<?xml version="1.0" encoding="utf-8"?>
<!-- Generator: Adobe Illustrator 24.0.0, SVG Export Plug-In . SVG Version: 6.00 Build 0)  -->
<svg version="1.1"
	 id="Livello_1" xmlns:anim="urn:oasis:names:tc:opendocument:xmlns:animation:1.0" xmlns:ooo="http://xml.openoffice.org/svg/export" xmlns:presentation="http://sun.com/xmlns/staroffice/presentation" xmlns:smil="http://www.w3.org/2001/SMIL20/"
	 xmlns="http://www.w3.org/2000/svg" xmlns:xlink="http://www.w3.org/1999/xlink" x="0px" y="0px" viewBox="0 0 984.1 439.2"
	 style="enable-background:new 0 0 984.1 439.2;" xml:space="preserve">
<style type="text/css">
	.st0{clip-path:url(#SVGID_2_);}
	.st1{fill:none;}
	.st2{fill-rule:evenodd;clip-rule:evenodd;fill:#5CBCAD;}
</style>
<g>
	<g>
		<g id="container-id1">
			<g>
				<defs>
					<rect id="SVGID_1_" x="28" y="24" width="928.1" height="391.2"/>
				</defs>
				<clipPath id="SVGID_2_">
					<use xlink:href="#SVGID_1_"  style="overflow:visible;"/>
				</clipPath>
				<g id="id1" class="st0">
					<g>
						<g>
							<g id="id3">
								<rect x="28" y="237.6" class="st1" width="362.5" height="5.8"/>
								<path class="st2" d="M28,237.6h362.5v5.8H28V237.6z"/>
							</g>
						</g>
						<g>
							<g id="id4">
								<rect x="575.6" y="237.6" class="st1" width="380.6" height="5.8"/>
								<path class="st2" d="M575.6,237.6h380.5v5.8H575.6V237.6z"/>
							</g>
						</g>
						<g>
							<g id="id5">
								<rect x="403.6" y="24" class="st1" width="153.4" height="242.6"/>
								<path class="st2" d="M508.2,95.9l0.2-0.4c-1.3,16.2-12.9,28.5-31.8,28.5c-20.2,0-32-13.8-32-31.4
									c0-16.7,10.7-30.5,29.1-31.8h34.5V95.9z M556.9,25.8c0,0-69.2-1.8-84.8-1.8c-40.9,0-68.5,33.4-68.5,72.5
									c0,38.5,30.2,69,69.4,69c17.6,0,30-5.8,42.3-18v30.7c0,21.4-9.6,40.5-34.9,40.5c-32.5,0-35-32.7-36.1-37.4l-34.9,21.8
									c0,0,9.8,63.4,76.1,63.4c49.2,0,71.4-34.3,71.4-91V25.8z"/>
							</g>
						</g>
						<g>
							<g id="id6">
								<rect x="338.6" y="113.4" class="st1" width="101.7" height="100.2"/>
								<path class="st2" d="M392.5,113.5l-53.9,69.2l32.1,30.9l69.6-43.6c0,0-17.6-5.6-31.4-22.2
									C394.3,130.4,392.5,113.5,392.5,113.5z"/>
							</g>
						</g>
						<g>
							<g id="id7">
								<rect x="28" y="279.9" class="st1" width="928.2" height="135.3"/>
								<path class="st2" d="M305.5,354.7l-10-38.3c-1.5,7.1-9.1,38-9.1,38L305.5,354.7z M193.5,324.6c0-8.2-3.5-11.3-12.4-11.3
									h-5.8v23.1h6C189.5,336.4,193.5,332.6,193.5,324.6z M355.3,408.9c-15.4,0-34.5,4.5-40.1-18.2c-1.8-6-3.3-10.5-3.3-10.5H279
									l-8.5,28.7h-29.8c-19.1,1.8-33.1,5.6-40.7-17.8h-0.2c-1.8-5.3-3.1-9.6-3.6-10.5c-2.7-9.1-4-11.6-6.4-14.9
									c-2.5-3.5-4.2-4-10.5-4h-4v47.2h-32.7v-125h40.9c29.8,0,43.8,10.9,43.8,33.8c0,14.5-5.8,26.2-17.8,31.2
									c8.2,3.8,10.9,6.9,17.6,24.2l5.6,15.6c2.9,7.6,5.1,12,6.9,14.7c6-19.8,26.7-86.3,32.3-101.9c6.2-18.5,19.1-18.3,31.8-18.3
									c7.3,0,11.8,0.7,11.8,0.7L355.3,408.9z M923.2,346.6c0-19.8-7.8-32.3-20.9-32.3c-12.9,0-20.9,12.7-20.9,32.7
									c0,19.4,8.7,31.8,21.4,31.8C915.6,378.9,923.2,366.9,923.2,346.6z M956.1,346.4c0,38.3-21.8,64.3-53.4,64.3
									c-19.8,0-36.1-10.2-45.4-27.2c-0.2,7.8-3.8,25.4-26,25.4h-41.4v-125h32.7v95.7h32.9c-4.3-9.6-6.7-20.5-6.7-33.2
									c0-37.4,22-64.5,53-64.5C933.4,281.9,956.1,309.1,956.1,346.4z M620.3,336.2h-6V313h5.8c9.1,0,12.7,3.3,12.7,11.6
									C632.8,332.6,628.6,336.2,620.3,336.2z M678.6,403.4c-1.8-2.9-4-7.3-6.9-14.9l-5.6-15.4c-6.4-17.6-9.3-20.7-17.3-24.5
									c11.8-4.9,17.8-16.5,17.8-31.2c0-22.7-14.2-33.8-43.8-33.8h-41v125.3h32.5v-47.2h4c6.2,0,8.2,0.2,10.7,3.8
									c2.2,3.3,3.8,6,6.5,15.1c0.2,0.9,1.8,5.1,3.6,10.2c7.6,23.6,23.1,19.6,42.3,17.8L678.6,403.4z M748.1,346.6
									c0-19.8-7.8-32.3-20.9-32.3c-12.9,0-20.9,12.7-20.9,32.7c0,19.4,8.5,31.8,21.4,31.8C740.5,378.9,748.1,366.9,748.1,346.6z
									 M780.8,346.4c0,38.3-21.6,64.3-53.2,64.3c-31.8,0-53.9-26.2-53.9-64.3c0-37.4,22-64.5,53-64.5
									C758.3,281.9,780.8,309.1,780.8,346.4z M422.3,302.8c0,24.2,0,35.4,0.2,42.5l-2-3.3c-0.2-0.9-0.9-2.2-1.8-3.5l-2.2-3.8
									c-1.6-2.9-30.3-50.7-30.3-50.7h-30.9v125h31.6v-58.7c0-0.5,0-1.6-0.2-3.1l-0.2-4c1.8,2.7,2.2,4,3.3,5.8l35.8,60.1h28
									l0.4-126.8C454.1,282.1,422.1,277,422.3,302.8z M527.8,354.7l-10-38.3c-1.5,7.1-9.3,38-9.3,38L527.8,354.7z M537.8,283.9
									l39.8,125c-15.4,0-34.5,4.5-40.3-18.2c-1.6-6-3.3-10.5-3.3-10.5h-32.7l-8.5,28.7h-32.7c0,0,27.6-89.2,34-107.5
									c6.2-18.5,19.1-18.3,31.8-18.3C533.3,283.2,537.8,283.9,537.8,283.9z M61.2,348.4c0,10.9,3.5,20.7,10.2,27.4
									c5.3,5.3,12.4,8.4,20.2,8.4c1.8,0,2.9-0.2,4.5-0.7l2-0.4h1.3v-1.6V348h30.9v61c-12,4.2-23.6,6.2-35.8,6.2
									c-19.8,0-36.3-6.2-48.3-18.3c-11.8-11.8-18.3-28.7-18.3-48c0-20.3,6.9-38.1,19.4-50.5c12-12,28.3-18.5,46.9-18.5
									c6.5,0,13.6,0.9,19.4,2.7c28.5,8.9,15.1,37.4,15.1,37.4c-10.9-7.8-19.6-9.1-30.5-9.1C75.6,310.8,61.2,325.5,61.2,348.4z"/>
							</g>
						</g>
					</g>
				</g>
			</g>
		</g>
	</g>
</g>
</svg>
